<svg width="86" height="86" viewBox="-5 0 81 86" fill="none" xmlns="http://www.w3.org/2000/svg">
    <path d="M70.3915 37.1194L50.5414 25.3355L50.5923 25.3878C47.4876 23.5548 43.5684 25.8592 43.5684 29.5777V55.8166L9.46698 35.5482V32.2225L26.4159 22.2455C30.5895 19.7839 30.5895 13.5515 26.4159 11.09L9.11069 0.824876C7.22747 -0.274959 4.93708 -0.274959 3.05386 0.824876C1.17065 1.92471 0.0509008 3.96726 0.0509008 6.2193L0 6.11456V78.9707H0.0509008C0.0509008 81.1704 1.22154 83.2653 3.05386 84.3652C4.93708 85.465 7.22747 85.465 9.11069 84.3652L25.9222 73.6287L43.9247 84.3128C45.8079 85.4126 48.0983 85.4126 49.9815 84.3128C51.8648 83.213 52.9845 81.1704 52.9845 78.9184L52.9336 58.2834L70.3915 47.9135C72.2747 46.8137 73.3945 44.7711 73.3945 42.5191C73.3945 40.267 72.2238 38.2245 70.3915 37.1247V37.1194ZM9.44661 12.1584L17.0813 16.9296L9.44661 21.7008V12.1636V12.1584ZM43.4666 72.8379L35.9338 68.3338L26.5686 62.7822L9.41608 52.6218V46.6513L17.1525 51.2601L26.5177 56.8117L43.4666 66.8673V72.8379ZM53.0659 48.0025V38.4654L60.7006 43.2366L53.0659 48.0078V48.0025Z"
          fill="url(#paint0_linear_27_8558)"></path>
    <defs>
        <linearGradient id="paint0_linear_27_8558" x1="13.5165" y1="-2.10129e-07" x2="59.878" y2="85.19"
                        gradientUnits="userSpaceOnUse">
            <stop stop-color="#FB775A"></stop>
            <stop offset="0.335" stop-color="#F1AD29"></stop>
            <stop offset="0.605" stop-color="#68B7EF"></stop>
            <stop offset="0.875" stop-color="#0081DF"></stop>
        </linearGradient>
    </defs>
</svg>