<svg xmlns="http://www.w3.org/2000/svg" width="32" height="32" viewBox="0 0 32 32" fill="none">
    <path d="M29.4281 13.9432L21.9755 9.51678L21.9946 9.53646C20.829 8.8479 19.3575 9.71351 19.3575 11.1103V20.9664L6.55433 13.353V12.1038L12.9177 8.35608C14.4847 7.43145 14.4847 5.09037 12.9177 4.16575L6.42056 0.309849C5.71352 -0.103283 4.8536 -0.103283 4.14656 0.309849C3.43951 0.72298 3.01911 1.49023 3.01911 2.33616L3 2.29682V29.6638H3.01911C3.01911 30.4901 3.45862 31.277 4.14656 31.6902C4.8536 32.1033 5.71352 32.1033 6.42056 31.6902L12.7324 27.6572L19.4913 31.6705C20.1983 32.0836 21.0583 32.0836 21.7653 31.6705C22.4724 31.2573 22.8928 30.4901 22.8928 29.6442L22.8736 21.893L29.4281 17.9978C30.1352 17.5847 30.5556 16.8174 30.5556 15.9715C30.5556 15.1255 30.1161 14.3583 29.4281 13.9452V13.9432ZM6.54668 4.56707L9.41307 6.35928L6.54668 8.15148V4.56904V4.56707ZM19.3193 27.3601L16.4911 25.6683L12.975 23.5829L6.53522 19.7664V17.5237L9.43983 19.2549L12.9559 21.3402L19.3193 25.1174V27.3601ZM22.9233 18.0312V14.4488L25.7897 16.241L22.9233 18.0332V18.0312Z" fill="url(#paint0_linear_481_58957)"/>
    <defs>
        <linearGradient id="paint0_linear_481_58957" x1="16.7778" y1="0" x2="16.7778" y2="32" gradientUnits="userSpaceOnUse">
            <stop stop-color="#F16A03"/>
            <stop offset="1" stop-color="#FFB57D"/>
        </linearGradient>
    </defs>
</svg>